<?xml version="1.0" encoding="UTF-8"?>
<svg width="600" height="600" version="1.1" xmlns="http://www.w3.org/2000/svg">
 <path d="m589.66 487.67-56.006-440.41c-2.6519-20.84-20.542-36.556-41.614-36.556-1.7219 0-3.4633 0.10955-5.1728 0.32159l-440.16 54.669c-11.081 1.3624-20.975 6.9726-27.859 15.793-6.8911 8.8279-9.9169 19.783-8.5209 30.864l55.994 440.37c2.636 20.845 20.528 36.566 41.625 36.568h2e-3c1.7254 0 3.4739-0.10779 5.1834-0.32336l440.16-54.666c11.084-1.3641 20.982-6.9779 27.867-15.811 6.8858-8.8297 9.9045-19.78 8.4997-30.834" fill="#fbbc09"/>
 <path d="m65.28 139.44c-1.6882-13.374 7.9009-25.692 21.297-27.362l373.13-46.336c13.417-1.6486 25.779 7.9179 27.476 21.292l47.49 373.51c1.6865 13.397-7.8796 25.701-21.297 27.353l-373.13 46.331c-13.43 1.6734-25.765-7.9144-27.488-21.287z" fill="#f1471d"/>
 <path d="m103.08 168.7c-1.7113-13.353 7.8779-25.659 21.297-27.318l306.06-38.029c13.419-1.661 25.791 7.9144 27.465 21.289l38.996 306.65c1.6865 13.374-7.8903 25.68-21.309 27.328l-306.06 38.021c-13.407 1.6734-25.777-7.895-27.476-21.294z" fill="#007b50"/>
 <path d="m247.05 264.4c-3.6351 0.41878-6.202 3.7301-5.7361 7.3578l9.1321 68.438c0.47653 3.64 3.8636 6.2481 7.5076 5.8276 0 0 33.829-3.9475 51.613-5.9689 17.775-2.0674 33.552-24.853 30.643-46.617-2.8982-21.75-22.39-37.229-44.172-34.711-21.749 2.5003-48.987 5.6738-48.987 5.6738m-9.8035-73.633c-3.6351 0.42938-6.225 3.7301-5.7361 7.3578l3.938 29.512c0.47653 3.6153 3.8512 6.2234 7.4864 5.8258 0 0 15.272-1.79 24.645-2.8767 9.3872-1.0849 20.321-10.803 18.516-24.406-1.814-13.594-15.134-19.308-24.032-18.274-8.8788 1.0337-24.817 2.8608-24.817 2.8608m95.565-49.582c48.507-1.7281 67.551 62.942 26.034 79.367 0 0 84.098-6.4584 92.442 56.146 9.4634 70.934-43.536 87.115-70.281 91.34-33.329 5.2462-213.8 26.397-213.8 26.397-3.6688 0.44175-7.0204-2.1876-7.52-5.8081l-28.838-215.77c-0.49957-3.6259 2.0904-6.9602 5.7166-7.4267 0 0 183.92-22.803 196.25-24.241" fill="#99daa2"/>
 <path d="m186.42 449.6 1.4349 11.334s10.806-0.17847 9.9257-7.1422c-0.88044-6.9461-11.361-4.1913-11.361-4.1913m-2.8769-22.687 1.4526 11.351s10.806-0.17494 9.9151-7.1387c-0.88929-6.9426-11.368-4.2125-11.368-4.2125m28.376 40.291-41.345 5.2197-6.838-53.982s21.502-2.6788 29.653-3.7213c7.0329-0.85523 16.308 1.9543 17.635 12.523 1.2702 10.079-3.9611 12.099-3.9611 12.099 1.5288 0.75097 6.6732 2.5409 8.9478 9.3262l-4.0922 18.536m224.66-68.105 1.4331 11.334s10.817-0.15726 9.9257-7.0998c-0.86981-6.985-11.359-4.2337-11.359-4.2337m4.7795-15.435c8.1383-1.0249 19.945 3.693 21.352 14.945 1.4261 11.27-3.4881 14.576-6.6502 18.165l15.13 17.94-23.208 2.9491-8.4022-14.993 2.0071 15.785-18.466 2.3254-6.8291-54.007s16.897-2.0868 25.067-3.1099m-125.72 52.436-3.9221 18.688-41.241 5.1243 17.09-40.742-17.517 2.1928-2.0408-15.97 47.747-5.9954-16.478 38.749zm75.572-28.131-4.218 19.23 12.891-1.6027zm27.841 33.28-10.65 1.3518-3.132-6.363-20.751 2.6187-1.4633 6.9284-16.702 2.0939 12.117-56.374 20.914-2.6134 17.453 34.739zm-178.2-14.443-4.1985 19.255 12.85-1.6486zm25.731 33.538-8.5422 1.092-3.132-6.34-20.769 2.5763-1.4438 6.9496-16.702 2.0957 12.115-56.376 20.925-2.6134 21.428 43.039zm73.987-46.03-4.2073 19.23 12.879-1.6044zm21.715 34.041-4.5226 0.56897-3.1444-6.3418-20.76 2.5957-1.4456 6.9514-16.719 2.0939 12.137-56.396 20.904-2.594 17.453 34.722z" fill="#fff"/>
</svg>
